<svg xmlns="http://www.w3.org/2000/svg" viewBox="0 0 48 56" fill="none">
  <defs>
    <linearGradient id="flaskGrad" x1="0%" y1="0%" x2="0%" y2="100%">
      <stop offset="0%" stop-color="currentColor" stop-opacity="0.95"/>
      <stop offset="100%" stop-color="currentColor" stop-opacity="0.7"/>
    </linearGradient>
    <linearGradient id="liquidGrad" x1="0%" y1="100%" x2="0%" y2="0%">
      <stop offset="0%" stop-color="currentColor" stop-opacity="0.4"/>
      <stop offset="100%" stop-color="currentColor" stop-opacity="0.15"/>
    </linearGradient>
  </defs>
  <!-- Flask body -->
  <path d="M14 8h20l-4 32a4 4 0 0 1-4 4h-4a4 4 0 0 1-4-4L14 8z" stroke="currentColor" stroke-width="1.5" stroke-linecap="round" stroke-linejoin="round" fill="url(#liquidGrad)"/>
  <path d="M24 4v4M20 8h8M14 8l2 28a4 4 0 0 0 4 4h8a4 4 0 0 0 4-4l2-28" stroke="currentColor" stroke-width="1.5" stroke-linecap="round" stroke-linejoin="round" fill="none"/>
  <!-- Molecular structure -->
  <circle cx="24" cy="28" r="3" fill="currentColor" opacity="0.9"/>
  <circle cx="18" cy="22" r="2" fill="currentColor" opacity="0.7"/>
  <circle cx="30" cy="22" r="2" fill="currentColor" opacity="0.7"/>
  <circle cx="24" cy="36" r="2" fill="currentColor" opacity="0.7"/>
  <line x1="24" y1="28" x2="18" y2="22" stroke="currentColor" stroke-width="1" opacity="0.6"/>
  <line x1="24" y1="28" x2="30" y2="22" stroke="currentColor" stroke-width="1" opacity="0.6"/>
  <line x1="24" y1="28" x2="24" y2="36" stroke="currentColor" stroke-width="1" opacity="0.6"/>
</svg>
